PathFileType	4	(X/Y/Z)	Walk6.trc
DataRate	CameraRate	NumFrames	NumMarkers	Units	OrigDataRate	OrigDataStartFrame	OrigNumFrames
200.000000	200.000000	6	59	mm	200.000000	225	500
Frame#	Times		LFHD		LBHD		C7		T10		RBack		LPSI		RPSI		RElbowM		RCAR		LUA1		LElbowM		LLFC		LCAR		RUA1		RFA1		RWRR		CLAV		LACR1		RTH3		RTB1		LWRU		RBHD		RACR1		RTB4		LFA1		LWRR		RTH2		RTB3		RToe		RElbow		RMT1		STRN		RWRU		RFHD		RTH4		RLFC		RCAL		RMT5		RTH1		RTB2		LTH3		LTH4		RMMAL		LTH1		LElbow		LTH2		LTB3		RLMAL		LTB2		RASI		LCAL		LMT1		LASI		LLMAL		LMT5		LToe		LTB1		LMMAL		LTB4
			X1	Y1	Z1	X2	Y2	Z2	X3	Y3	Z3	X4	Y4	Z4	X5	Y5	Z5	X6	Y6	Z6	X7	Y7	Z7	X8	Y8	Z8	X9	Y9	Z9	X10	Y10	Z10	X11	Y11	Z11	X12	Y12	Z12	X13	Y13	Z13	X14	Y14	Z14	X15	Y15	Z15	X16	Y16	Z16	X17	Y17	Z17	X18	Y18	Z18	X19	Y19	Z19	X20	Y20	Z20	X21	Y21	Z21	X22	Y22	Z22	X23	Y23	Z23	X24	Y24	Z24	X25	Y25	Z25	X26	Y26	Z26	X27	Y27	Z27	X28	Y28	Z28	X29	Y29	Z29	X30	Y30	Z30	X31	Y31	Z31	X32	Y32	Z32	X33	Y33	Z33	X34	Y34	Z34	X35	Y35	Z35	X36	Y36	Z36	X37	Y37	Z37	X38	Y38	Z38	X39	Y39	Z39	X40	Y40	Z40	X41	Y41	Z41	X42	Y42	Z42	X43	Y43	Z43	X44	Y44	Z44	X45	Y45	Z45	X46	Y46	Z46	X47	Y47	Z47	X48	Y48	Z48	X49	Y49	Z49	X50	Y50	Z50	X51	Y51	Z51	X52	Y52	Z52	X53	Y53	Z53	X54	Y54	Z54	X55	Y55	Z55	X56	Y56	Z56	X57	Y57	Z57	X58	Y58	Z58	X59	Y59	Z59

225	1.125	-373.48	1494.1	-45.866	-545.93	1501.9	-65.737	-574.32	1362.4	1.6609	-590.16	1090.6	0.46642	-598.92	1260.2	131.09	-606.87	903.83	-39.333	-618.28	908.05	59.722	-532.4	966.5	199.39	-375.56	768.04	312.29	-484.3	1126.7	-239.83	-551.93	976.76	-186.85	-407.33	457.68	-109.71	-402.57	731.97	-282.2	-486.39	1153.1	240.16	-472.57	883.99	288.1	-358.18	810.03	266.7	-446.57	1288.5	10.095	-489.36	1299.2	-159.04	-477.56	555.33	205.13	-505.17	333.49	124.3	-452.21	770.17	-301.81	-545.55	1509.5	57.403	-503.57	1306.7	157.77	-582.04	279.5	114.83	-494.11	888.6	-282.37	-417.81	771.55	-238.2	-407.19	657.76	195.1	-650.13	219.07	103.62	-694.43	47.844	101.89	-497.31	1009.6	278.85	-702.27	95.529	81.852	-378.51	1187.8	8.0742	-425.76	780.75	276.77	-367.03	1503	30.817	-481.01	650.14	216.51	-465.95	456.46	200.57	-791.66	225.04	87.508	-736.83	105.83	129.53	-482.16	738.58	232.46	-614.87	311.02	173.54	-394.52	569.97	-120.18	-408.43	661.19	-144.78	-720.02	190.53	55.186	-427.72	750.02	-170.59	-524.67	1009.6	-255.25	-349.22	684.53	-107.87	-370.65	166.86	-13.15	-747.81	195.97	129.59	-401.21	253.61	-88.396	-335.29	891.98	164.05	-457.8	32.992	-13.274	-303.23	51.393	-2.7643	-496.06	853.13	-126.33	-413.95	65.621	-54.534	-325.88	34.506	-58.345	-247.79	26.247	-9.0667	-367.49	348.82	-28.579	-396.08	72.698	23.253	-377.65	257.77	-21.768
226	1.13	-367.75	1494.7	-46.212	-540.2	1502.5	-66.12	-568.62	1363.1	1.3305	-584.56	1091.2	-0.20717	-593.5	1260.6	130.51	-601.56	904.54	-39.813	-612.85	908.62	59.114	-528.33	966.94	199.07	-372.85	767.85	312.74	-477.99	1127.4	-240.27	-545.74	977.28	-187.85	-405.9	457.64	-109.87	-394.74	733.07	-282.04	-481.69	1153.4	239.9	-469.06	884.26	287.96	-355.01	809.7	267.21	-440.98	1289	9.8724	-483.55	1299.9	-159.38	-468.37	556.21	204.92	-493.59	334.48	124.32	-444.48	770.98	-301.9	-539.81	1510.2	57.007	-498.24	1307	157.51	-570.17	280.15	114.82	-486.93	889.26	-282.8	-410.39	772.55	-238.15	-399.09	659.37	195.04	-637.99	219.38	103.75	-679.52	48.375	104.73	-493.15	1010	278.53	-688.08	96.184	83.895	-373	1188.3	7.9058	-422.81	780.76	276.99	-361.28	1503.6	30.417	-472.82	651.02	216.29	-455.22	457.62	200.62	-779.92	224.02	87.228	-723.11	106.78	131.19	-474.88	739.5	232.07	-603.19	311.67	173.55	-392.05	569.8	-120.4	-405.02	661.12	-145.07	-707.54	190.3	55.331	-423.41	750.09	-171.08	-518.03	1010.2	-255.98	-345.71	683.95	-108.08	-370.26	166.72	-13.315	-735.54	196.03	129.65	-400.82	253.53	-88.504	-332.76	892.17	163.91	-457.84	32.986	-13.192	-303.26	51.299	-2.705	-495.4	852.89	-126.36	-413.98	65.613	-54.472	-325.9	34.5	-58.343	-247.79	26.132	-8.9268	-366.44	348.67	-28.931	-396.01	72.674	23.255	-376.95	257.67	-21.996
227	1.135	-362.02	1495.2	-46.528	-534.47	1503	-66.469	-562.91	1363.7	1.0271	-579	1091.9	-0.85843	-588.08	1261	129.94	-596.28	905.22	-40.276	-607.46	909.21	58.529	-524.25	967.29	198.75	-370.16	767.62	313.24	-471.72	1128	-240.7	-539.56	977.73	-188.88	-404.47	457.61	-110.04	-386.86	734.16	-281.88	-477	1153.5	239.65	-465.56	884.47	287.84	-351.85	809.32	267.76	-435.37	1289.5	9.6634	-477.76	1300.6	-159.71	-459.29	557.08	204.59	-481.99	335.43	124.21	-436.71	771.77	-302	-534.06	1510.8	56.648	-492.89	1307.3	157.28	-558.17	280.67	114.74	-479.71	889.89	-283.24	-402.92	773.52	-238.1	-391.05	660.96	194.92	-625.61	219.41	103.83	-663.93	48.729	107.53	-489	1010.2	278.23	-673.36	96.603	85.921	-367.49	1188.7	7.7574	-419.87	780.71	277.24	-355.53	1504.3	30.054	-464.71	651.89	216.04	-444.51	458.81	200.57	-767.94	222.44	87.001	-708.85	107.34	132.8	-467.65	740.38	231.7	-591.38	312.07	173.51	-389.57	569.65	-120.61	-401.61	661.06	-145.35	-694.78	189.67	55.487	-419.1	750.15	-171.57	-511.39	1010.8	-256.71	-342.24	683.4	-108.23	-369.88	166.59	-13.492	-722.94	195.65	129.75	-400.41	253.46	-88.632	-330.49	892.35	163.76	-457.87	32.985	-13.121	-303.29	51.211	-2.6587	-494.48	852.67	-126.42	-414	65.604	-54.423	-325.92	34.488	-58.347	-247.8	26.03	-8.7979	-365.38	348.52	-29.285	-395.93	72.657	23.247	-376.25	257.58	-22.236
228	1.14	-356.28	1495.8	-46.815	-528.73	1503.5	-66.786	-557.19	1364.3	0.74555	-573.46	1092.5	-1.4857	-582.65	1261.3	129.4	-591.03	905.87	-40.72	-602.09	909.8	57.973	-520.18	967.57	198.44	-367.49	767.36	313.79	-465.5	1128.5	-241.12	-533.39	978.1	-189.92	-403.02	457.61	-110.23	-378.92	735.24	-281.73	-472.3	1153.6	239.39	-462.05	884.63	287.73	-348.7	808.9	268.35	-429.76	1290	9.4667	-471.98	1301.2	-160.03	-450.29	557.94	204.17	-470.37	336.34	123.96	-428.89	772.53	-302.09	-528.32	1511.4	56.322	-487.52	1307.6	157.08	-546.06	281.05	114.59	-472.47	890.48	-283.67	-395.4	774.48	-238.05	-383.08	662.52	194.74	-612.99	219.14	103.87	-647.7	48.917	110.25	-484.84	1010.4	277.93	-658.16	96.792	87.917	-361.98	1189.1	7.6277	-416.95	780.59	277.53	-349.78	1504.8	29.728	-456.66	652.73	215.75	-433.84	460.01	200.45	-755.71	220.3	86.835	-694.09	107.52	134.35	-460.47	741.21	231.34	-579.44	312.21	173.43	-387.09	569.53	-120.84	-398.18	661.01	-145.62	-681.75	188.64	55.657	-414.77	750.21	-172.08	-504.75	1011.3	-257.45	-338.79	682.86	-108.32	-369.51	166.47	-13.678	-710.04	194.81	129.88	-399.97	253.4	-88.78	-328.45	892.51	163.6	-457.91	32.987	-13.062	-303.32	51.13	-2.6265	-493.26	852.46	-126.49	-414.02	65.595	-54.388	-325.95	34.471	-58.358	-247.8	25.941	-8.6815	-364.32	348.38	-29.64	-395.86	72.649	23.232	-375.55	257.49	-22.483
229	1.145	-350.54	1496.3	-47.074	-522.99	1504	-67.072	-551.47	1364.8	0.48101	-567.96	1093.1	-2.0878	-577.21	1261.7	128.87	-585.79	906.49	-41.142	-596.76	910.38	57.455	-516.1	967.79	198.13	-364.83	767.07	314.37	-459.31	1129	-241.52	-527.23	978.41	-190.97	-401.57	457.63	-110.43	-370.93	736.32	-281.57	-467.61	1153.7	239.12	-458.55	884.75	287.65	-345.55	808.43	268.95	-424.14	1290.3	9.2804	-466.21	1301.7	-160.34	-441.36	558.79	203.66	-458.74	337.2	123.58	-421.03	773.27	-302.19	-522.57	1512	56.027	-482.13	1307.8	156.9	-533.82	281.29	114.37	-465.2	891.05	-284.11	-387.85	775.41	-237.98	-375.16	664.05	194.5	-600.14	218.59	103.85	-630.88	48.952	112.9	-480.68	1010.6	277.63	-642.5	96.758	89.867	-356.48	1189.3	7.5156	-414.03	780.43	277.85	-344.03	1505.4	29.437	-448.68	653.54	215.41	-423.21	461.2	200.23	-743.22	217.63	86.734	-678.86	107.31	135.83	-453.34	741.99	231	-567.37	312.08	173.3	-384.6	569.42	-121.08	-394.73	660.96	-145.88	-668.45	187.21	55.844	-410.42	750.26	-172.59	-498.11	1011.8	-258.19	-335.36	682.35	-108.36	-369.14	166.35	-13.868	-696.83	193.51	130.04	-399.5	253.35	-88.949	-326.61	892.65	163.45	-457.95	32.994	-13.014	-303.35	51.057	-2.6092	-491.73	852.27	-126.59	-414.03	65.586	-54.369	-325.97	34.448	-58.376	-247.81	25.866	-8.5789	-363.26	348.24	-29.99	-395.79	72.65	23.21	-374.85	257.41	-22.736
230	1.15	-344.79	1496.8	-47.306	-517.24	1504.4	-67.33	-545.73	1365.3	0.22911	-562.47	1093.7	-2.664	-571.77	1261.9	128.36	-580.58	907.09	-41.539	-591.45	910.95	56.982	-512	967.96	197.82	-362.2	766.75	314.99	-453.17	1129.5	-241.9	-521.07	978.67	-192.01	-400.1	457.67	-110.66	-362.9	737.39	-281.43	-462.91	1153.6	238.84	-455.05	884.83	287.57	-342.42	807.93	269.59	-418.52	1290.7	9.1029	-460.45	1302.2	-160.63	-432.49	559.61	203.08	-447.09	338	123.07	-413.14	773.99	-302.29	-516.83	1512.4	55.762	-476.72	1307.9	156.74	-521.48	281.38	114.09	-457.92	891.58	-284.55	-380.26	776.33	-237.91	-367.3	665.55	194.21	-587.06	217.76	103.79	-613.52	48.852	115.44	-476.52	1010.7	277.33	-626.42	96.509	91.754	-350.98	1189.6	7.4195	-411.13	780.21	278.19	-338.27	1505.9	29.18	-440.76	654.31	215.04	-412.61	462.37	199.93	-730.47	214.44	86.703	-663.18	106.74	137.23	-446.27	742.72	230.65	-555.18	311.7	173.14	-382.12	569.34	-121.33	-391.26	660.92	-146.13	-654.89	185.4	56.05	-406.05	750.3	-173.1	-491.47	1012.2	-258.93	-331.94	681.84	-108.36	-368.78	166.25	-14.06	-683.32	191.78	130.22	-398.98	253.3	-89.136	-324.95	892.77	163.28	-457.98	33.004	-12.978	-303.38	50.992	-2.607	-489.87	852.1	-126.7	-414.04	65.577	-54.365	-325.99	34.419	-58.401	-247.82	25.803	-8.4908	-362.19	348.11	-30.33	-395.71	72.661	23.181	-374.15	257.33	-22.992
